<?xml version="1.0" encoding="utf-8"?>
<!-- Generator: Adobe Illustrator 17.0.0, SVG Export Plug-In . SVG Version: 6.00 Build 0)  -->
<!DOCTYPE svg PUBLIC "-//W3C//DTD SVG 1.1//EN" "http://www.w3.org/Graphics/SVG/1.1/DTD/svg11.dtd">
<svg version="1.1" id="レイヤー_1" xmlns="http://www.w3.org/2000/svg" xmlns:xlink="http://www.w3.org/1999/xlink" x="0px"
	 y="0px" width="1792px" height="1792px" viewBox="0 0 1792 1792" enable-background="new 0 0 1792 1792" xml:space="preserve">
<path d="M771.855,108.05v1164.473L427.823,928.479c-19.395-19.374-46.118-24.102-59.697-10.523L253.416,1032.67
	c-13.578,13.578-8.862,40.299,10.532,59.697l468.178,468.19l163.875,163.863l163.875-163.863l468.178-468.19
	c19.392-19.398,24.108-46.118,10.532-59.697l-114.714-114.714c-13.575-13.578-40.302-8.85-59.694,10.523l-344.032,344.044V108.05
	c0-22.356-16.676-40.469-37.244-40.469H809.099C788.528,67.581,771.855,85.694,771.855,108.05z"/>
</svg>
