<?xml version="1.0" encoding="utf-8"?>
<!-- Generator: Adobe Illustrator 17.0.0, SVG Export Plug-In . SVG Version: 6.00 Build 0)  -->
<!DOCTYPE svg PUBLIC "-//W3C//DTD SVG 1.1//EN" "http://www.w3.org/Graphics/SVG/1.1/DTD/svg11.dtd">
<svg version="1.1" id="レイヤー_1" xmlns="http://www.w3.org/2000/svg" xmlns:xlink="http://www.w3.org/1999/xlink" x="0px"
	 y="0px" width="1792px" height="1792px" viewBox="0 0 1792 1792" enable-background="new 0 0 1792 1792" xml:space="preserve">
<path d="M108.05,1020.145h1164.473l-344.044,344.032c-19.374,19.395-24.102,46.118-10.523,59.697l114.714,114.711
	c13.578,13.578,40.299,8.862,59.697-10.532l468.19-468.178l163.863-163.875l-163.863-163.875l-468.19-468.178
	c-19.398-19.392-46.118-24.108-59.697-10.532L917.956,368.128c-13.578,13.575-8.85,40.302,10.523,59.694l344.044,344.032H108.05
	c-22.356,0-40.469,16.676-40.469,37.244v173.804C67.581,1003.472,85.694,1020.145,108.05,1020.145z"/>
</svg>
