<?xml version="1.0" encoding="utf-8"?>
<!-- Generator: Adobe Illustrator 17.0.0, SVG Export Plug-In . SVG Version: 6.00 Build 0)  -->
<!DOCTYPE svg PUBLIC "-//W3C//DTD SVG 1.1//EN" "http://www.w3.org/Graphics/SVG/1.1/DTD/svg11.dtd">
<svg version="1.1" id="レイヤー_1" xmlns="http://www.w3.org/2000/svg" xmlns:xlink="http://www.w3.org/1999/xlink" x="0px"
	 y="0px" width="1792px" height="1792px" viewBox="0 0 1792 1792" enable-background="new 0 0 1792 1792" xml:space="preserve">
<path d="M1683.95,771.855H519.477l344.044-344.032c19.374-19.395,24.102-46.118,10.523-59.697L759.33,253.416
	c-13.578-13.578-40.299-8.862-59.697,10.532l-468.19,468.178L67.581,896.001l163.863,163.875l468.19,468.178
	c19.398,19.392,46.118,24.108,59.697,10.532l114.714-114.714c13.578-13.575,8.85-40.302-10.523-59.694l-344.044-344.032H1683.95
	c22.356,0,40.469-16.676,40.469-37.244V809.099C1724.419,788.528,1706.306,771.855,1683.95,771.855z"/>
</svg>
