<?xml version="1.0" encoding="utf-8"?>
<!-- Generator: Adobe Illustrator 17.0.0, SVG Export Plug-In . SVG Version: 6.00 Build 0)  -->
<!DOCTYPE svg PUBLIC "-//W3C//DTD SVG 1.1//EN" "http://www.w3.org/Graphics/SVG/1.1/DTD/svg11.dtd">
<svg version="1.1" id="レイヤー_1" xmlns="http://www.w3.org/2000/svg" xmlns:xlink="http://www.w3.org/1999/xlink" x="0px"
	 y="0px" width="1792px" height="1792px" viewBox="0 0 1792 1792" enable-background="new 0 0 1792 1792" xml:space="preserve">
<path d="M1020.145,1683.95V519.477l344.032,344.044c19.395,19.374,46.118,24.102,59.697,10.523l114.711-114.714
	c13.578-13.578,8.862-40.299-10.532-59.697l-468.178-468.19L895.999,67.581L732.124,231.444l-468.178,468.19
	c-19.392,19.398-24.108,46.118-10.532,59.697l114.714,114.714c13.575,13.578,40.302,8.85,59.694-10.523l344.032-344.044V1683.95
	c0,22.356,16.676,40.469,37.244,40.469h173.804C1003.472,1724.419,1020.145,1706.306,1020.145,1683.95z"/>
</svg>
