<?xml version="1.0" encoding="utf-8"?>
<!-- Generator: Adobe Illustrator 17.0.0, SVG Export Plug-In . SVG Version: 6.00 Build 0)  -->
<!DOCTYPE svg PUBLIC "-//W3C//DTD SVG 1.1//EN" "http://www.w3.org/Graphics/SVG/1.1/DTD/svg11.dtd">
<svg version="1.1" id="レイヤー_1" xmlns="http://www.w3.org/2000/svg" xmlns:xlink="http://www.w3.org/1999/xlink" x="0px"
	 y="0px" width="1792px" height="1792px" viewBox="0 0 1792 1792" enable-background="new 0 0 1792 1792" xml:space="preserve">
<path d="M1686.669,849.275l-653.214-653.214c-75.915-75.915-198.686-76.223-274.218-0.69L104.642,849.965
	c-75.533,75.533-75.224,198.305,0.69,274.218l528.895,528.895h523.545l529.586-529.586
	C1762.891,1047.959,1762.582,925.188,1686.669,849.275z M661.396,1292.123l-71.782-71.782c-16.309-16.309-16.309-42.752,0-59.062
	l274.218-274.218c16.309-16.309,42.754-16.309,59.063,0l75.936,75.936c16.309,16.309,16.309,42.752,0,59.063l-270.062,270.062
	H661.396z M1001.997,1417.568l-74.424,74.423h-66.308l-70.862-70.862c-17.112-17.112-17.762-44.205-1.452-60.516l78.047-78.046
	c16.309-16.309,43.402-15.66,60.514,1.452l73.032,73.032C1017.655,1374.164,1018.306,1401.257,1001.997,1417.568z M1003.051,612.844
	L524.223,1091.67h-63.28l-73.829-73.829c-16.309-16.309-16.309-42.752,0-59.062l480.937-480.936
	c16.309-16.309,42.752-16.309,59.062,0l75.938,75.936C1019.361,570.09,1019.361,596.533,1003.051,612.844z"/>
</svg>
