<?xml version="1.0" encoding="utf-8"?>
<!-- Generator: Adobe Illustrator 17.0.0, SVG Export Plug-In . SVG Version: 6.00 Build 0)  -->
<!DOCTYPE svg PUBLIC "-//W3C//DTD SVG 1.1//EN" "http://www.w3.org/Graphics/SVG/1.1/DTD/svg11.dtd">
<svg version="1.1" id="レイヤー_1" xmlns="http://www.w3.org/2000/svg" xmlns:xlink="http://www.w3.org/1999/xlink" x="0px"
	 y="0px" width="1792px" height="1792px" viewBox="0 0 1792 1792" enable-background="new 0 0 1792 1792" xml:space="preserve">
<g>
	<path fill="#040000" d="M1066.517,944.676c-54.823-61.273-131.012-95.538-228.565-102.794
		c87.072-23.582,149.958-58.048,189.866-104.608c39.908-46.56,59.258-107.631,59.258-185.634
		c0.998-57.144-12.746-113.58-39.908-163.866c-27.476-47.565-67.684-86.516-116.097-112.469
		c-44.141-24.187-96.747-41.722-158.423-52.002c-61.676-10.279-169.912-14.512-324.708-14.512H71.231v1373.809h388.198
		c156.005,0,268.473-5.241,337.406-15.721c68.932-10.884,126.376-29.024,172.935-53.816
		c56.018-29.017,102.12-74.066,132.423-129.399c30.838-55.63,46.56-120.329,46.56-194.099
		C1148.752,1087.378,1121.542,1005.748,1066.517,944.676z M419.52,512.942h80.421c93.119,0,155.602,10.481,187.448,31.443
		c32.047,21.163,47.769,57.444,47.769,108.841s-17.535,84.654-51.397,105.212s-97.352,30.233-189.866,30.233H419.52L419.52,512.942
		L419.52,512.942z M738.786,1300.826c-36.885,22.373-99.77,33.257-188.052,33.257H419.52v-299.312h136.655
		c90.7,0,153.586,11.489,186.843,34.466s50.792,62.886,50.792,120.934c0,58.048-18.14,88.886-55.63,111.259L738.786,1300.826z"/>
	<path fill="#040000" d="M1546.625,1234.917c-96.177,0-174.145,77.967-174.145,174.145s77.967,174.145,174.145,174.145
		c96.178,0,174.145-77.967,174.145-174.145v0C1720.769,1312.885,1642.802,1234.917,1546.625,1234.917z"/>
	<rect x="1395.457" y="208.793" fill="#040000" width="302.335" height="916.195"/>
</g>
</svg>
