<?xml version="1.0" encoding="utf-8"?>
<!-- Generator: Adobe Illustrator 17.0.0, SVG Export Plug-In . SVG Version: 6.00 Build 0)  -->
<!DOCTYPE svg PUBLIC "-//W3C//DTD SVG 1.1//EN" "http://www.w3.org/Graphics/SVG/1.1/DTD/svg11.dtd">
<svg version="1.1" id="レイヤー_1" xmlns="http://www.w3.org/2000/svg" xmlns:xlink="http://www.w3.org/1999/xlink" x="0px"
	 y="0px" width="1792px" height="1792px" viewBox="0 0 1792 1792" enable-background="new 0 0 1792 1792" xml:space="preserve">
<path d="M1367.226,1030.636c93.263,0,172.678,32.782,238.243,98.347c65.565,65.565,98.347,144.979,98.347,238.243
	c0,93.263-32.782,172.678-98.347,238.243c-65.565,65.565-144.979,98.347-238.243,98.347c-93.264,0-172.678-32.782-238.243-98.347
	c-65.565-65.565-98.347-144.979-98.347-238.243c0-8.415,0.701-20.336,2.104-35.763l-378.664-189.332
	c-64.513,60.306-140.947,90.459-229.302,90.459c-93.264,0-172.678-32.782-238.243-98.347
	C120.966,1068.678,88.184,989.264,88.184,896s32.782-172.678,98.347-238.243S331.51,559.41,424.774,559.41
	c88.355,0,164.789,30.153,229.302,90.459l378.664-189.332c-1.402-15.427-2.104-27.348-2.104-35.763
	c0-93.264,32.782-172.678,98.347-238.243s144.979-98.347,238.243-98.347c93.263,0,172.678,32.782,238.243,98.347
	c65.565,65.565,98.347,144.979,98.347,238.243s-32.782,172.678-98.347,238.243c-65.565,65.565-144.979,98.347-238.243,98.347
	c-88.355,0-164.789-30.153-229.302-90.459L759.26,860.237c1.402,15.427,2.104,27.348,2.104,35.763s-0.701,20.336-2.104,35.763
	l378.664,189.332C1202.437,1060.789,1278.871,1030.636,1367.226,1030.636z"/>
</svg>
