<svg xmlns="http://www.w3.org/2000/svg" xmlns:xlink="http://www.w3.org/1999/xlink" width="300" height="300" viewBox="0 0 300 300">
  <defs>
    <clipPath id="clip-path">
      <rect width="300" height="300" fill="none"/>
    </clipPath>
  </defs>
  <g clip-path="url(#clip-path)">
    <path d="M222.769,227.358c-16.181,17.258-38.166,22.935-64.779,25.627C104.1,258.434,57.421,234.369,51.767,174.242a117.693,117.693,0,0,1,14.756-69.776L59.845,78.2c-1.078-4.565,3.123-8.907,7.572-7.826l23.069,5.6A90.686,90.686,0,0,1,139.1,55.5a89.065,89.065,0,0,1,44.638,7.032l21.684-13.119a6.406,6.406,0,0,1,9.638,5.206l1.25,30.935h0c16.676,17.6,28.031,41.648,30.6,68.952,1.45,15.422-.15,27.219-4.238,38.473-1.914,5.268-2.49,9.723.97,14.132,3.342,4.26,8.643,12.532,14.554,11.145,8.884-2.083,18.4-1.528,24.278,2.144a150.174,150.174,0,1,0-24.351,33.557,35.364,35.364,0,0,1-14.334-5.677c-8.931-5.954-16.857-11.579-21.02-20.924" fill="#5ea81e"/>
    <path d="M208.921,117.383l14.009-1.717-.2-2.524L208.359,114.9q-.925-2.723-2.082-5.324l15.832-5.052-.5-3.169-16.839,5.832c-11.295-23.68-35.716-38.057-63.365-35.261a64.969,64.969,0,0,0-56.17,48.1l-16.47-2.494-.176,3.236,16.217,1.758a47.958,47.958,0,0,0-1.075,4.9l-14.149,1.129.129,2.531L83.5,130a49.9,49.9,0,0,0-.415,5.707l-12.6,5.151.618,3.123,12-5.614c.028,1.673.1,2.565.259,4.258,3.334,35.464,32.956,42.476,68.347,38.9s63.147-16.393,59.813-51.857c-.161-1.7-.4-2.586-.691-4.241l12.995,2.822.3-2.862L210.5,122.792a49.779,49.779,0,0,0-1.58-5.409" fill="#5ea81e"/>
  </g>
</svg>
